<?xml version="1.0" encoding="utf-8"?>
<svg version="1.1" xmlns:xlink="http://www.w3.org/1999/xlink" width="12px" height="12px" viewBox="392 201.5  12 12" xmlns="http://www.w3.org/2000/svg">
  <path d="M 398 201.5  C 401.36 201.5  404 204.14  404 207.5  C 404 210.86  401.36 213.5  398 213.5  C 394.64 213.5  392 210.86  392 207.5  C 392 204.14  394.64 201.5  398 201.5  Z " fill-rule="nonzero" fill="#ffffff" stroke="none" />
  <path d="M 398 202  C 401.08 202  403.5 204.42  403.5 207.5  C 403.5 210.58  401.08 213  398 213  C 394.92 213  392.5 210.58  392.5 207.5  C 392.5 204.42  394.92 202  398 202  Z " stroke-width="1" stroke="#797979" fill="none" />
  <path d="M 398 210.5  C 396.32 210.5  395 209.18  395 207.5  C 395 205.82  396.32 204.5  398 204.5  C 399.68 204.5  401 205.82  401 207.5  C 401 209.18  399.68 210.5  398 210.5  " fill-rule="nonzero" fill="#797979" stroke="none" />
</svg>