<?xml version="1.0" encoding="utf-8"?>
<svg version="1.1" xmlns:xlink="http://www.w3.org/1999/xlink" width="12px" height="12px" viewBox="392 226.5  12 12" xmlns="http://www.w3.org/2000/svg">
  <path d="M 398 226.5  C 401.36 226.5  404 229.14  404 232.5  C 404 235.86  401.36 238.5  398 238.5  C 394.64 238.5  392 235.86  392 232.5  C 392 229.14  394.64 226.5  398 226.5  Z " fill-rule="nonzero" fill="#f0f0f0" stroke="none" />
  <path d="M 398 227  C 401.08 227  403.5 229.42  403.5 232.5  C 403.5 235.58  401.08 238  398 238  C 394.92 238  392.5 235.58  392.5 232.5  C 392.5 229.42  394.92 227  398 227  Z " stroke-width="1" stroke="#797979" fill="none" />
  <path d="M 398 235.5  C 396.32 235.5  395 234.18  395 232.5  C 395 230.82  396.32 229.5  398 229.5  C 399.68 229.5  401 230.82  401 232.5  C 401 234.18  399.68 235.5  398 235.5  " fill-rule="nonzero" fill="#797979" stroke="none" />
</svg>