<?xml version="1.0" encoding="utf-8"?>
<svg version="1.1" xmlns:xlink="http://www.w3.org/1999/xlink" width="12px" height="12px" viewBox="392 251.5  12 12" xmlns="http://www.w3.org/2000/svg">
  <path d="M 398 251.5  C 401.36 251.5  404 254.14  404 257.5  C 404 260.86  401.36 263.5  398 263.5  C 394.64 263.5  392 260.86  392 257.5  C 392 254.14  394.64 251.5  398 251.5  Z " fill-rule="nonzero" fill="#f0f0f0" stroke="none" />
  <path d="M 398 252  C 401.08 252  403.5 254.42  403.5 257.5  C 403.5 260.58  401.08 263  398 263  C 394.92 263  392.5 260.58  392.5 257.5  C 392.5 254.42  394.92 252  398 252  Z " stroke-width="1" stroke="#797979" fill="none" />
  <path d="M 398 260.5  C 396.32 260.5  395 259.18  395 257.5  C 395 255.82  396.32 254.5  398 254.5  C 399.68 254.5  401 255.82  401 257.5  C 401 259.18  399.68 260.5  398 260.5  " fill-rule="nonzero" fill="#797979" stroke="none" />
</svg>