<?xml version="1.0" encoding="utf-8"?>
<svg version="1.1" xmlns:xlink="http://www.w3.org/1999/xlink" width="12px" height="12px" viewBox="392 254.5  12 12" xmlns="http://www.w3.org/2000/svg">
  <path d="M 398 254.5  C 401.36 254.5  404 257.14  404 260.5  C 404 263.86  401.36 266.5  398 266.5  C 394.64 266.5  392 263.86  392 260.5  C 392 257.14  394.64 254.5  398 254.5  Z " fill-rule="nonzero" fill="#ffffff" stroke="none" />
  <path d="M 398 255  C 401.08 255  403.5 257.42  403.5 260.5  C 403.5 263.58  401.08 266  398 266  C 394.92 266  392.5 263.58  392.5 260.5  C 392.5 257.42  394.92 255  398 255  Z " stroke-width="1" stroke="#797979" fill="none" />
  <path d="M 398 263.5  C 396.32 263.5  395 262.18  395 260.5  C 395 258.82  396.32 257.5  398 257.5  C 399.68 257.5  401 258.82  401 260.5  C 401 262.18  399.68 263.5  398 263.5  " fill-rule="nonzero" fill="#797979" stroke="none" />
</svg>