<?xml version="1.0" encoding="utf-8"?>
<svg version="1.1" xmlns:xlink="http://www.w3.org/1999/xlink" width="12px" height="12px" viewBox="453 254.5  12 12" xmlns="http://www.w3.org/2000/svg">
  <path d="M 459 254.5  C 462.36 254.5  465 257.14  465 260.5  C 465 263.86  462.36 266.5  459 266.5  C 455.64 266.5  453 263.86  453 260.5  C 453 257.14  455.64 254.5  459 254.5  Z " fill-rule="nonzero" fill="#ffffff" stroke="none" />
  <path d="M 459 255  C 462.08 255  464.5 257.42  464.5 260.5  C 464.5 263.58  462.08 266  459 266  C 455.92 266  453.5 263.58  453.5 260.5  C 453.5 257.42  455.92 255  459 255  Z " stroke-width="1" stroke="#797979" fill="none" />
  <path d="M 459 263.5  C 457.32 263.5  456 262.18  456 260.5  C 456 258.82  457.32 257.5  459 257.5  C 460.68 257.5  462 258.82  462 260.5  C 462 262.18  460.68 263.5  459 263.5  " fill-rule="nonzero" fill="#797979" stroke="none" />
</svg>