<?xml version="1.0" encoding="utf-8"?>
<svg version="1.1" xmlns:xlink="http://www.w3.org/1999/xlink" width="12px" height="12px" viewBox="514 254.5  12 12" xmlns="http://www.w3.org/2000/svg">
  <path d="M 520 254.5  C 523.36 254.5  526 257.14  526 260.5  C 526 263.86  523.36 266.5  520 266.5  C 516.64 266.5  514 263.86  514 260.5  C 514 257.14  516.64 254.5  520 254.5  Z " fill-rule="nonzero" fill="#ffffff" stroke="none" />
  <path d="M 520 255  C 523.08 255  525.5 257.42  525.5 260.5  C 525.5 263.58  523.08 266  520 266  C 516.92 266  514.5 263.58  514.5 260.5  C 514.5 257.42  516.92 255  520 255  Z " stroke-width="1" stroke="#797979" fill="none" />
  <path d="M 520 263.5  C 518.32 263.5  517 262.18  517 260.5  C 517 258.82  518.32 257.5  520 257.5  C 521.68 257.5  523 258.82  523 260.5  C 523 262.18  521.68 263.5  520 263.5  " fill-rule="nonzero" fill="#797979" stroke="none" />
</svg>